<svg width="42" height="41" viewBox="0 0 42 41" fill="none" xmlns="http://www.w3.org/2000/svg">
<rect width="42" height="41" rx="20.5" fill="#F5F5F5"/>
<path d="M21.0002 12.7083C16.6969 12.7083 13.2085 16.1968 13.2085 20.5C13.2085 24.8032 16.6969 28.2917 21.0002 28.2917C25.0497 28.2917 28.3772 25.2028 28.7559 21.2523C28.7736 21.0685 28.6791 20.892 28.5163 20.8047C28.3536 20.7174 28.1543 20.7363 28.0109 20.8527C27.2229 21.4922 26.2193 21.875 25.1252 21.875C22.5939 21.875 20.5418 19.823 20.5418 17.2917C20.5418 15.7882 21.2652 14.4539 22.3849 13.6174C22.5329 13.5068 22.6 13.3181 22.5551 13.1388C22.5102 12.9596 22.3621 12.8248 22.1794 12.7971C21.7946 12.7386 21.4008 12.7083 21.0002 12.7083Z" fill="#555555"/>
</svg>
