<svg width="85" height="36" viewBox="0 0 85 36" fill="none" xmlns="http://www.w3.org/2000/svg">
<rect width="85" height="36" rx="18" fill="white"/>
<path d="M25.295 17.48H25.855C26.0577 17.48 26.2204 17.456 26.343 17.408C26.471 17.3547 26.5857 17.2667 26.687 17.144L30.343 12.896C30.4604 12.752 30.5804 12.6533 30.703 12.6C30.8257 12.5413 30.9777 12.512 31.159 12.512H32.615L28.359 17.408C28.2524 17.5467 28.1457 17.6587 28.039 17.744C27.9377 17.8293 27.831 17.9013 27.719 17.96C28.0124 18.0613 28.2684 18.2667 28.487 18.576L32.911 24H31.431C31.3244 24 31.231 23.992 31.151 23.976C31.0764 23.96 31.0097 23.9387 30.951 23.912C30.8977 23.88 30.847 23.8427 30.799 23.8C30.7564 23.7573 30.7164 23.7067 30.679 23.648L26.895 19.168C26.8417 19.0987 26.7884 19.04 26.735 18.992C26.6817 18.944 26.6204 18.9067 26.551 18.88C26.4817 18.848 26.4017 18.8267 26.311 18.816C26.2204 18.8 26.1137 18.792 25.991 18.792H25.295V24H23.591V12.512H25.295V17.48ZM35.6062 15.872V24H34.0462V15.872H35.6062ZM35.9022 13.36C35.9022 13.504 35.8728 13.6427 35.8142 13.776C35.7555 13.904 35.6755 14.0187 35.5742 14.12C35.4782 14.216 35.3635 14.2933 35.2302 14.352C35.0968 14.4053 34.9582 14.432 34.8142 14.432C34.6702 14.432 34.5342 14.4053 34.4062 14.352C34.2782 14.2933 34.1635 14.216 34.0622 14.12C33.9662 14.0187 33.8888 13.904 33.8302 13.776C33.7768 13.6427 33.7502 13.504 33.7502 13.36C33.7502 13.2107 33.7768 13.072 33.8302 12.944C33.8888 12.8107 33.9662 12.696 34.0622 12.6C34.1635 12.4987 34.2782 12.4213 34.4062 12.368C34.5342 12.3093 34.6702 12.28 34.8142 12.28C34.9582 12.28 35.0968 12.3093 35.2302 12.368C35.3635 12.4213 35.4782 12.4987 35.5742 12.6C35.6755 12.696 35.7555 12.8107 35.8142 12.944C35.8728 13.072 35.9022 13.2107 35.9022 13.36ZM39.3368 17.432C39.5981 16.8987 39.9128 16.48 40.2808 16.176C40.6488 15.872 41.0915 15.72 41.6088 15.72C41.7848 15.72 41.9501 15.7413 42.1048 15.784C42.2648 15.8213 42.4035 15.88 42.5208 15.96L42.4168 17.136C42.3795 17.28 42.2915 17.352 42.1528 17.352C42.0781 17.352 41.9661 17.3387 41.8168 17.312C41.6675 17.28 41.5075 17.264 41.3368 17.264C41.0861 17.264 40.8648 17.3013 40.6728 17.376C40.4808 17.4453 40.3075 17.552 40.1528 17.696C40.0035 17.8347 39.8701 18.008 39.7528 18.216C39.6355 18.4187 39.5261 18.6507 39.4248 18.912V24H37.8648V15.872H38.7608C38.9315 15.872 39.0461 15.904 39.1048 15.968C39.1688 16.0267 39.2141 16.1333 39.2408 16.288L39.3368 17.432ZM45.3562 15.872V24H43.7962V15.872H45.3562ZM45.6522 13.36C45.6522 13.504 45.6228 13.6427 45.5642 13.776C45.5055 13.904 45.4255 14.0187 45.3242 14.12C45.2282 14.216 45.1135 14.2933 44.9802 14.352C44.8468 14.4053 44.7082 14.432 44.5642 14.432C44.4202 14.432 44.2842 14.4053 44.1562 14.352C44.0282 14.2933 43.9135 14.216 43.8122 14.12C43.7162 14.0187 43.6388 13.904 43.5802 13.776C43.5268 13.6427 43.5002 13.504 43.5002 13.36C43.5002 13.2107 43.5268 13.072 43.5802 12.944C43.6388 12.8107 43.7162 12.696 43.8122 12.6C43.9135 12.4987 44.0282 12.4213 44.1562 12.368C44.2842 12.3093 44.4202 12.28 44.5642 12.28C44.7082 12.28 44.8468 12.3093 44.9802 12.368C45.1135 12.4213 45.2282 12.4987 45.3242 12.6C45.4255 12.696 45.5055 12.8107 45.5642 12.944C45.6228 13.072 45.6522 13.2107 45.6522 13.36ZM52.4068 17.272C52.3641 17.3413 52.3188 17.392 52.2708 17.424C52.2228 17.4507 52.1615 17.464 52.0868 17.464C52.0015 17.464 51.9055 17.4347 51.7988 17.376C51.6975 17.3173 51.5721 17.2533 51.4228 17.184C51.2788 17.1147 51.1081 17.0507 50.9108 16.992C50.7135 16.9333 50.4788 16.904 50.2068 16.904C49.9828 16.904 49.7775 16.9333 49.5908 16.992C49.4095 17.0453 49.2548 17.1227 49.1268 17.224C48.9988 17.32 48.9001 17.4373 48.8308 17.576C48.7615 17.7093 48.7268 17.8533 48.7268 18.008C48.7268 18.2107 48.7855 18.3787 48.9028 18.512C49.0255 18.6453 49.1828 18.76 49.3748 18.856C49.5721 18.952 49.7935 19.04 50.0388 19.12C50.2895 19.1947 50.5428 19.2747 50.7988 19.36C51.0601 19.4453 51.3135 19.544 51.5588 19.656C51.8095 19.7627 52.0308 19.8987 52.2228 20.064C52.4201 20.224 52.5775 20.4187 52.6948 20.648C52.8175 20.8773 52.8788 21.1573 52.8788 21.488C52.8788 21.8667 52.8095 22.2187 52.6708 22.544C52.5375 22.864 52.3375 23.1413 52.0708 23.376C51.8095 23.6107 51.4841 23.7947 51.0948 23.928C50.7055 24.0613 50.2601 24.128 49.7588 24.128C49.1988 24.128 48.6815 24.0347 48.2068 23.848C47.7321 23.6613 47.3348 23.424 47.0148 23.136L47.3828 22.536C47.4255 22.4613 47.4788 22.4053 47.5428 22.368C47.6068 22.3253 47.6921 22.304 47.7988 22.304C47.9001 22.304 48.0041 22.3413 48.1108 22.416C48.2175 22.4907 48.3455 22.5733 48.4948 22.664C48.6441 22.7493 48.8255 22.8293 49.0388 22.904C49.2521 22.9733 49.5188 23.008 49.8388 23.008C50.1055 23.008 50.3375 22.976 50.5348 22.912C50.7321 22.8427 50.8948 22.752 51.0228 22.64C51.1561 22.5227 51.2548 22.3893 51.3188 22.24C51.3828 22.0907 51.4148 21.9333 51.4148 21.768C51.4148 21.5547 51.3535 21.3787 51.2308 21.24C51.1135 21.096 50.9561 20.9733 50.7588 20.872C50.5668 20.7707 50.3455 20.6827 50.0948 20.608C49.8441 20.5333 49.5881 20.4533 49.3268 20.368C49.0655 20.2827 48.8095 20.184 48.5588 20.072C48.3081 19.96 48.0841 19.8187 47.8868 19.648C47.6948 19.4773 47.5375 19.2693 47.4148 19.024C47.2975 18.7787 47.2388 18.48 47.2388 18.128C47.2388 17.8133 47.3028 17.512 47.4308 17.224C47.5641 16.936 47.7535 16.6827 47.9988 16.464C48.2495 16.2453 48.5561 16.072 48.9188 15.944C49.2868 15.8107 49.7055 15.744 50.1748 15.744C50.7135 15.744 51.1988 15.8293 51.6308 16C52.0681 16.1707 52.4415 16.4053 52.7508 16.704L52.4068 17.272ZM56.1279 16.904C56.4693 16.5573 56.8453 16.2773 57.2559 16.064C57.6719 15.8507 58.1493 15.744 58.6879 15.744C59.1359 15.744 59.5279 15.8187 59.8639 15.968C60.2053 16.1173 60.4906 16.328 60.7199 16.6C60.9493 16.8667 61.1226 17.1893 61.2399 17.568C61.3573 17.9467 61.4159 18.3653 61.4159 18.824V24H59.8479V18.824C59.8479 18.2427 59.7146 17.792 59.4479 17.472C59.1813 17.1467 58.7733 16.984 58.2239 16.984C57.8239 16.984 57.4479 17.08 57.0959 17.272C56.7493 17.4587 56.4266 17.7147 56.1279 18.04V24H54.5679V12.192H56.1279V16.904Z" fill="black"/>
</svg>
