<svg width="160" height="100" viewBox="0 0 160 100" fill="none" xmlns="http://www.w3.org/2000/svg">
<rect width="160" height="100" rx="8" fill="#F9F8F7"/>
<path d="M110.153 57.952C110.153 58.6704 110.013 58.9192 109.236 58.9093C106.764 58.8794 106.764 58.9093 106.764 56.4395C106.764 51.0355 106.764 45.6322 106.764 40.2295C106.764 38.3866 105.965 37.7916 104.167 38.2792C103.818 38.3747 103.484 38.5319 103.143 38.6593C102.332 38.9618 102.048 39.4912 102.054 40.4007C102.104 46.2339 102.054 52.0671 102.1 57.9022C102.1 58.6983 101.863 58.8814 101.102 58.8675C98.7889 58.8237 98.7889 58.8675 98.7889 56.5449C98.7889 51.141 98.7889 45.7383 98.7889 40.337C98.7889 38.3608 97.99 37.7637 96.0966 38.2991C94.3371 38.7966 94.1094 39.0951 94.1094 40.8962C94.1094 46.5324 94.0854 52.1666 94.1333 57.8007C94.1333 58.7102 93.8777 58.8933 93.0229 58.8695C90.746 58.8097 90.744 58.8515 90.744 56.6265C90.744 49.8301 90.76 43.0357 90.7261 36.2412C90.7261 35.4173 90.9258 35.0849 91.7626 35.2143C92.0609 35.2432 92.3612 35.2432 92.6594 35.2143C93.5601 35.1765 94.5328 35.0392 94.0794 36.6671C95.6173 35.3855 97.1192 34.7844 98.8728 35.0053C99.8294 35.1247 100.716 35.4571 101.247 36.2969C101.629 36.894 101.881 36.7089 102.306 36.3785C103.73 35.27 105.33 34.7307 107.153 35.0571C108.699 35.3377 109.638 36.2711 109.969 37.7796C110.082 38.3317 110.135 38.8941 110.129 39.4573C110.139 45.6229 110.123 51.7884 110.153 57.952Z" fill="#464648"/>
<path d="M75.1968 38.958C74.9971 36.1717 72.9819 34.6035 70.2037 35.0194C69.2448 35.1616 68.3381 35.5452 67.5694 36.1339C67.2678 36.3608 66.8803 36.532 66.9123 35.9508C66.9562 35.1548 66.5128 35.1985 65.9776 35.2165C65.4797 35.2563 64.9795 35.2563 64.4816 35.2165C63.6828 35.113 63.483 35.4155 63.483 36.2115C63.521 40.8526 63.501 45.4937 63.501 50.1427V62.4818C63.501 65.1108 63.501 65.0889 66.1833 65.0372C66.7825 65.0272 66.8903 64.8262 66.8823 64.2948C66.8544 62.4062 66.8663 60.5135 66.8823 58.6248C66.8823 58.3442 66.7385 57.9581 67.0281 57.8049C67.3177 57.6516 67.5334 58.0298 67.7711 58.179C69.4987 59.2597 71.3281 59.5602 73.1736 58.6308C74.9212 57.7512 75.2287 56.0675 75.2407 54.3022C75.2407 54.0375 75.2407 53.7728 75.2407 53.5061C75.2407 49.8256 75.2407 46.1451 75.2407 42.4647C75.2387 41.2765 75.2807 40.1123 75.1968 38.958ZM71.8994 53.6852C71.8994 55.55 71.1264 56.1889 69.265 55.8744C68.8744 55.8 68.4924 55.6867 68.1246 55.5361C67.2458 55.1998 66.7904 54.6684 66.8404 53.6036C66.9402 51.4144 66.8703 49.2253 66.8703 47.046C66.8703 44.7295 66.8923 42.4089 66.8544 40.0924C66.8284 39.832 66.8845 39.57 67.0147 39.3429C67.145 39.1157 67.3431 38.9345 67.5813 38.8246C68.2966 38.3987 69.1092 38.1617 69.9421 38.136C71.2503 38.136 71.8614 38.6714 71.8874 39.9789C71.9233 41.8338 71.9014 43.6886 71.9014 45.5514C71.9014 48.2521 71.9073 50.9687 71.8994 53.6832V53.6852Z" fill="#464648"/>
<path d="M88.7 40.0634C88.6601 36.6224 86.8745 34.9746 83.4473 34.9507C78.8097 34.9188 77.2839 36.4334 77.2819 41.0705C77.2819 43.5701 77.2819 43.5502 79.7724 43.5263C80.3716 43.5263 80.6013 43.3791 80.5713 42.7522C80.5234 41.8267 80.5314 40.8953 80.5713 39.9659C80.6332 38.5847 81.3422 38.0096 82.9021 38.0076C84.4619 38.0056 85.1829 38.5668 85.2388 39.95C85.2868 41.1083 85.2208 42.2725 85.2728 43.4308C85.2987 44.0099 85.073 44.2408 84.5458 44.408C83.0578 44.8836 81.5759 45.3851 80.1119 45.9245C78.4263 46.5434 77.3757 47.7475 77.3278 49.5605C77.2532 51.7105 77.2925 53.8629 77.4456 56.0087C77.5914 57.8754 78.7998 58.8884 80.6652 59.0835C82.3888 59.2626 83.8607 58.6854 85.4286 57.4336C84.8693 59.1113 85.8699 58.8586 86.6748 58.8486C87.1422 58.8486 87.6095 58.8168 88.0729 58.8486C88.6181 58.8964 88.738 58.6496 88.736 58.1581C88.728 52.1318 88.7699 46.0956 88.7 40.0634ZM84.4759 55.3599C83.8273 55.7015 83.1186 55.915 82.3888 55.9888C81.2504 56.0684 80.6232 55.5131 80.6013 54.3688C80.5753 53.0433 80.6013 51.7159 80.6013 50.3884C80.5793 49.9529 80.697 49.5217 80.9371 49.1571C81.1773 48.7926 81.5276 48.5136 81.9374 48.3604C82.8222 47.9823 83.7349 47.6719 84.6317 47.3156C85.121 47.1166 85.2808 47.2818 85.2708 47.7873C85.2488 48.8819 85.2708 49.9765 85.2708 51.0691C85.2708 52.0642 85.2228 53.0592 85.2868 54.0543C85.3207 54.729 85.0511 55.0832 84.4759 55.3599Z" fill="#464648"/>
<path d="M59.1458 51.192C58.315 51.1721 57.8996 51.3154 58.0394 52.2527C58.0947 52.8145 58.098 53.3801 58.0494 53.9424C57.9994 55.4549 57.3503 56.0002 55.6307 55.9962C53.9111 55.9923 53.282 55.433 53.26 53.8946C53.238 52.3562 53.292 50.776 53.236 49.2197C53.2101 48.4814 53.4977 48.346 54.1588 48.358C56.2539 48.3938 58.3529 48.3401 60.448 48.3898C61.173 48.4057 61.3268 48.1669 61.3168 47.4903C61.2769 45.102 61.3168 42.7138 61.2969 40.3256C61.2689 36.6637 59.5673 34.9681 55.9063 34.9502H55.3072C51.6942 34.9601 49.9147 36.6896 49.8687 40.3237C49.8428 42.0133 49.8507 43.7069 49.8547 45.3926C49.8547 45.9897 49.8547 46.5867 49.8547 47.1838C49.8547 47.5559 49.8547 47.9281 49.8547 48.3022C49.8547 50.382 49.8288 52.4637 49.8667 54.5434C49.9147 57.0888 51.3786 58.6869 53.9011 59.0551C55.0212 59.2243 56.1604 59.2243 57.2804 59.0551C59.5053 58.7148 60.8754 57.3774 61.199 55.1643C61.2732 54.5703 61.3053 53.9718 61.2949 53.3732C61.3128 51.2099 61.3048 51.2477 59.1458 51.192ZM53.292 40.047C53.3359 38.6081 54.0549 38.0807 55.8045 38.1026C57.3423 38.1225 57.9835 38.6997 58.0214 40.1406C58.0394 40.8351 58.0214 41.5337 58.0214 42.2243C58.0214 42.9845 57.9954 43.7467 58.0214 44.507C58.0454 45.0304 57.8476 45.1996 57.3344 45.1876C56.2079 45.1598 55.0775 45.1598 53.9391 45.1876C53.4338 45.1996 53.234 45.0443 53.244 44.513C53.298 43.0144 53.248 41.5178 53.292 40.0371V40.047Z" fill="#464648"/>
<path d="M45.6314 56.534C45.196 56.534 45.0522 56.2256 44.8485 56.0365C42.4678 53.8194 40.107 51.5785 37.7104 49.3774C37.225 48.9316 37.1272 48.452 37.0453 47.831C36.8196 46.1215 37.4447 44.9413 38.7529 43.8228C41.0657 41.8326 43.2167 39.6654 45.6214 37.3926C45.6214 38.935 45.6334 40.2644 45.6214 41.5938C45.6214 41.9182 45.2998 42.0834 45.0881 42.2844C43.6701 43.6357 42.27 45.007 40.8121 46.3145C40.1969 46.8638 40.0451 47.1862 40.7721 47.8091C42.2521 49.0808 43.6302 50.474 45.0801 51.7954C45.271 51.9491 45.4219 52.1464 45.5199 52.3706C45.618 52.5947 45.6603 52.8391 45.6434 53.0831C45.6054 54.2274 45.6314 55.3738 45.6314 56.534Z" fill="#39C2D7"/>
<path d="M121.191 50.488C119.016 52.2234 117.087 54.2693 115.045 56.16C114.886 56.3073 114.772 56.5441 114.39 56.5302C114.39 55.2246 114.39 53.9171 114.39 52.6115C114.39 52.2135 114.698 52.0443 114.932 51.8154C116.431 50.4044 117.927 48.9834 119.449 47.6062C119.913 47.1883 119.911 46.9475 119.449 46.5296C117.935 45.1364 116.469 43.6876 114.961 42.2905C114.757 42.123 114.596 41.9091 114.492 41.6666C114.387 41.4242 114.343 41.1604 114.362 40.8974C114.408 39.8127 114.374 38.7261 114.374 37.3608C117.266 40.0933 119.967 42.6447 122.663 45.1882C122.91 45.423 122.904 45.6977 122.94 45.9982C123.168 47.8252 122.747 49.2461 121.191 50.488Z" fill="#39C2D7"/>
</svg>
