<svg width="214" height="47" viewBox="0 0 214 47" fill="none" xmlns="http://www.w3.org/2000/svg">
<mask id="mask0_2_4646" style="mask-type:luminance" maskUnits="userSpaceOnUse" x="0" y="0" width="214" height="47">
<path d="M214 0.0800781H0V46.0801H214V0.0800781Z" fill="white"/>
</mask>
<g mask="url(#mask0_2_4646)">
<path d="M0.000732422 13.3407C0.000732422 13.0238 0.142193 12.8654 0.425114 12.8654H1.82579C1.92473 12.8653 2.02211 12.8901 2.10895 12.9376C2.21958 13.0086 2.30506 13.1127 2.3532 13.2352L8.75495 25.8924L9.16637 27.1203L9.03739 25.883L8.93508 13.3407C8.93032 13.2172 8.9691 13.096 9.0446 12.9983C9.08496 12.952 9.13554 12.9157 9.19232 12.8924C9.2491 12.869 9.31052 12.8593 9.37171 12.8639H10.8127C10.9217 12.8598 11.0279 12.899 11.1081 12.973C11.185 13.0457 11.2237 13.1639 11.2241 13.3277V30.7788C11.2241 31.0885 11.0738 31.2433 10.7731 31.2433H9.4099C9.3074 31.2407 9.20666 31.2161 9.11449 31.171C8.9996 31.1091 8.91235 31.0059 8.87023 30.8821L2.50811 18.4048L2.05779 17.1422L2.2019 18.4178L2.27611 30.7644C2.27611 31.0822 2.13897 31.2411 1.8647 31.2411H0.423673C0.141713 31.2411 0.000732422 31.0822 0.000732422 30.7644V13.3407Z" fill="#0F1826"/>
<path d="M26.6077 30.751C26.6589 30.8955 26.6531 31.0146 26.589 31.1049C26.556 31.1497 26.5123 31.1855 26.462 31.2091C26.4116 31.2327 26.3562 31.2433 26.3008 31.24H24.6422C24.5431 31.2388 24.4459 31.2125 24.3597 31.1634C24.308 31.131 24.2639 31.0876 24.2306 31.0363C24.1972 30.9851 24.1754 30.9271 24.1666 30.8666L23.3042 27.4775H17.7505L16.9017 30.8666C16.8929 30.927 16.8712 30.9849 16.838 31.0361C16.8047 31.0874 16.7609 31.1308 16.7093 31.1634C16.6228 31.2124 16.5255 31.2387 16.4262 31.24H14.7711C14.7163 31.244 14.6614 31.2337 14.6117 31.21C14.5621 31.1863 14.5194 31.1501 14.488 31.1049C14.4576 31.0516 14.4394 30.9922 14.4349 30.9309C14.4305 30.8697 14.4397 30.8082 14.462 30.751L19.3615 13.25C19.3882 13.1292 19.4538 13.0206 19.5481 12.9408C19.6279 12.8809 19.7252 12.8492 19.8248 12.8506H21.2514C21.3529 12.8501 21.452 12.8816 21.5346 12.9408C21.6317 13.0192 21.6995 13.1281 21.727 13.25L26.6077 30.751ZM18.3016 25.312H22.7623L20.7305 17.2451L20.5381 15.8792L20.345 17.2451L18.3016 25.312Z" fill="#0F1826"/>
<path d="M34.5232 13.3275C34.5232 13.1563 34.5657 13.0386 34.6522 12.9664C34.7273 12.9016 34.8227 12.8654 34.9217 12.8638H36.4643C36.6358 12.8638 36.7525 12.9086 36.8181 12.9989C36.8886 13.1127 36.9224 13.2457 36.9146 13.3795L36.9017 27.001C36.9105 27.6414 36.7902 28.277 36.5479 28.8696C36.332 29.4021 36.0088 29.8841 35.5984 30.2854C35.188 30.6868 34.6993 30.9988 34.163 31.202C33.6014 31.4191 33.004 31.5284 32.4021 31.5241C31.742 31.5261 31.0881 31.3967 30.4783 31.1435C29.905 30.9179 29.3884 30.5685 28.9652 30.1199C28.8734 30.0244 28.8033 29.9101 28.7599 29.7848C28.7087 29.6468 28.7426 29.5182 28.8629 29.3976L29.698 28.4182C29.8183 28.2982 29.9357 28.2513 30.0517 28.2737C30.1743 28.3037 30.2844 28.3714 30.3666 28.4673C30.5997 28.6776 30.8618 28.8533 31.1448 28.9888C31.4987 29.1618 31.8887 29.248 32.2824 29.2401C32.5923 29.2434 32.8992 29.1799 33.1824 29.0538C33.4525 28.932 33.6936 28.7539 33.8899 28.5316C34.0948 28.2933 34.2519 28.0176 34.3525 27.7197C34.4664 27.3837 34.5226 27.0308 34.5189 26.6759L34.5232 13.3275Z" fill="#0F1826"/>
<path d="M40.4474 18.7917C40.4425 17.9744 40.564 17.1613 40.8077 16.3814C41.0328 15.654 41.3975 14.9778 41.8812 14.3907C42.3652 13.8132 42.9711 13.3508 43.6551 13.037C44.3617 12.7062 45.1824 12.541 46.1171 12.5415C47.0423 12.5415 47.8589 12.7067 48.5669 13.037C49.2513 13.3516 49.86 13.8103 50.3516 14.382C50.8446 14.9644 51.2164 15.6398 51.4453 16.3684C51.6929 17.1473 51.8164 17.9605 51.8113 18.778V25.3381C51.8163 26.1546 51.6927 26.9669 51.4453 27.7448C51.2171 28.4718 50.8478 29.1463 50.3588 29.7298C49.869 30.3045 49.2593 30.7644 48.5726 31.0769C47.8603 31.4077 47.0406 31.5731 46.1135 31.5731C45.1865 31.5731 44.3723 31.408 43.671 31.0776C42.9893 30.7628 42.384 30.3032 41.8971 29.7305C41.409 29.1466 41.0408 28.4718 40.8134 27.7448C40.5657 26.9659 40.4422 26.1527 40.4474 25.3352V18.7917ZM42.8251 25.4927C42.821 25.9988 42.8922 26.5027 43.0362 26.9879C43.1651 27.4272 43.3794 27.8367 43.6667 28.1927C43.9465 28.5334 44.2975 28.8086 44.6948 28.9988C45.1393 29.2037 45.6244 29.3047 46.1135 29.2942C46.6052 29.3045 47.0928 29.2035 47.5401 28.9988C47.9413 28.8089 48.2966 28.5338 48.5813 28.1927C48.8717 27.8403 49.0881 27.4327 49.2175 26.9944C49.3639 26.5119 49.4367 26.01 49.4337 25.5057V18.6112C49.4383 18.111 49.3654 17.6132 49.2175 17.1355C49.0834 16.6973 48.8678 16.2885 48.582 15.9306C48.3008 15.5852 47.9473 15.3058 47.5466 15.1123C47.0995 14.9133 46.616 14.81 46.1268 14.8089C45.6377 14.8078 45.1537 14.9089 44.7057 15.1058C44.3045 15.2953 43.9509 15.5727 43.671 15.9176C43.3834 16.2757 43.1681 16.6863 43.0369 17.1268C42.8936 17.6076 42.8224 18.1072 42.8258 18.609L42.8251 25.4927Z" fill="#0F1826"/>
<path d="M53.9939 13.2985C53.9895 13.2392 53.9969 13.1796 54.0157 13.1232C54.0345 13.0667 54.0643 13.0146 54.1034 12.9699C54.1397 12.9338 54.1829 12.9054 54.2305 12.8867C54.2781 12.8679 54.329 12.8591 54.3801 12.8608H64.6892C64.7383 12.8601 64.7869 12.8693 64.8323 12.8881C64.8776 12.9068 64.9187 12.9347 64.9529 12.9699C64.9923 13.0145 65.0223 13.0666 65.0413 13.123C65.0602 13.1795 65.0677 13.2392 65.0632 13.2985V14.7287C65.0632 14.8732 65.0271 14.9801 64.9536 15.0444C64.881 15.1087 64.7868 15.1433 64.6899 15.1412H60.7177V30.8024C60.7266 30.9213 60.6894 31.039 60.614 31.1311C60.5794 31.1674 60.5374 31.1959 60.491 31.2147C60.4445 31.2335 60.3946 31.2422 60.3445 31.2402H58.7226C58.6705 31.2431 58.6184 31.2349 58.5697 31.2161C58.521 31.1973 58.4769 31.1683 58.4402 31.1311C58.3644 31.0392 58.3272 30.9213 58.3365 30.8024V15.1441H54.3801C54.2791 15.1477 54.1803 15.1132 54.1034 15.0473C54.0314 14.983 53.9939 14.8783 53.9939 14.7316V13.2985Z" fill="#0F1826"/>
<path d="M145.765 13.2985C145.761 13.2392 145.768 13.1797 145.787 13.1232C145.805 13.0668 145.835 13.0147 145.874 12.9699C145.91 12.9338 145.954 12.9056 146.001 12.8868C146.049 12.8681 146.1 12.8592 146.151 12.8608H156.461C156.51 12.86 156.558 12.8693 156.604 12.888C156.649 12.9068 156.69 12.9346 156.724 12.9699C156.763 13.0147 156.793 13.0668 156.812 13.1232C156.83 13.1797 156.838 13.2392 156.833 13.2985V14.7287C156.833 14.8732 156.797 14.9801 156.724 15.0444C156.652 15.1086 156.557 15.1431 156.461 15.1411H152.488V30.8024C152.497 30.9212 152.461 31.0389 152.385 31.1311C152.351 31.1673 152.309 31.1958 152.262 31.2146C152.216 31.2334 152.166 31.2421 152.116 31.2401H150.496C150.444 31.243 150.392 31.2347 150.343 31.2159C150.294 31.1971 150.25 31.1682 150.213 31.1311C150.138 31.0389 150.101 30.9212 150.11 30.8024V15.144H146.151C146.05 15.1475 145.951 15.1129 145.874 15.0472C145.802 14.983 145.765 14.8782 145.765 14.7316V13.2985Z" fill="#0F1826"/>
<path d="M169.665 30.7511C169.717 30.8956 169.71 31.0147 169.646 31.105C169.613 31.1499 169.57 31.1858 169.519 31.2094C169.469 31.233 169.413 31.2436 169.358 31.2401H167.701C167.601 31.2389 167.504 31.2126 167.418 31.1635C167.366 31.1309 167.322 31.0875 167.289 31.0362C167.256 30.985 167.234 30.9271 167.225 30.8667L166.361 27.4776H160.807L159.958 30.8667C159.949 30.9271 159.928 30.985 159.894 31.0362C159.861 31.0875 159.817 31.1309 159.766 31.1635C159.679 31.2125 159.582 31.2388 159.483 31.2401H157.825C157.771 31.2444 157.716 31.2341 157.666 31.2104C157.616 31.1867 157.574 31.1504 157.542 31.105C157.512 31.0518 157.493 30.9923 157.489 30.931C157.484 30.8697 157.494 30.8082 157.516 30.7511L162.416 13.2501C162.442 13.1292 162.508 13.0205 162.602 12.9409C162.682 12.8811 162.778 12.8493 162.878 12.8506H164.306C164.407 12.85 164.506 12.8816 164.588 12.9409C164.686 13.019 164.754 13.128 164.781 13.2501L169.665 30.7511ZM161.361 25.3121H165.822L163.79 17.2452L163.597 15.8793L163.405 17.2452L161.361 25.3121Z" fill="#0F1826"/>
<path d="M172.548 13.4307C172.54 13.2892 172.584 13.1497 172.669 13.0371C172.715 12.9866 172.772 12.9473 172.836 12.9223C172.899 12.8972 172.967 12.8871 173.035 12.8926H174.681C175.007 12.8926 175.17 13.0732 175.17 13.4343V15.6374C175.175 15.8796 175.126 16.1199 175.025 16.3402C174.937 16.5262 174.808 16.6893 174.646 16.8169C174.484 16.9436 174.298 17.0378 174.1 17.0943C173.895 17.1542 173.683 17.1846 173.47 17.1846C173.204 17.1846 173.071 17.077 173.071 16.8617V16.3323C173.068 16.2889 173.077 16.2456 173.098 16.2072C173.118 16.1689 173.149 16.1371 173.187 16.1156C173.27 16.0707 173.363 16.0483 173.458 16.0506C173.503 16.0557 173.55 16.0503 173.593 16.0348C173.636 16.0193 173.675 15.994 173.708 15.961C173.76 15.8855 173.785 15.7947 173.78 15.7031C173.787 15.6195 173.767 15.5357 173.722 15.4648C173.694 15.4376 173.661 15.4171 173.624 15.4046C173.587 15.3921 173.548 15.388 173.509 15.3925H172.983C172.869 15.3948 172.759 15.3532 172.674 15.2762C172.589 15.199 172.546 15.0747 172.546 14.9021L172.548 13.4307Z" fill="#0F1826"/>
<path d="M179.671 13.3405C179.671 13.0227 179.812 12.8638 180.095 12.8638H181.626C181.908 12.8638 182.05 13.0227 182.05 13.3405V28.9729H188.054C188.159 28.9679 188.262 29.0027 188.343 29.0704C188.415 29.1347 188.452 29.2394 188.452 29.3853V30.8032C188.457 30.8626 188.449 30.9222 188.43 30.9787C188.412 31.0351 188.382 31.0872 188.343 31.1319C188.304 31.1689 188.259 31.1977 188.21 31.2166C188.16 31.2354 188.107 31.244 188.054 31.2417H180.095C179.812 31.2417 179.671 31.0828 179.671 30.765V13.3405Z" fill="#0F1826"/>
<path d="M192.259 13.3405C192.259 13.0227 192.403 12.8638 192.696 12.8638H194.225C194.5 12.8638 194.637 13.0227 194.637 13.3405V30.7642C194.637 31.0821 194.5 31.241 194.225 31.241H192.696C192.404 31.241 192.259 31.0821 192.259 30.7642V13.3405Z" fill="#0F1826"/>
<path d="M202.455 18.4946L201.992 16.8196L202.147 18.4809L202.248 30.7784C202.266 31.0875 202.137 31.2421 201.864 31.2421H200.359C200.221 31.2421 200.127 31.1995 200.076 31.1135C200.02 31.0067 199.993 30.8867 199.999 30.7661V13.2759C200.001 13.1636 200.04 13.055 200.108 12.966C200.143 12.9268 200.185 12.896 200.233 12.876C200.281 12.8559 200.333 12.8472 200.385 12.8505H202.197C202.242 12.846 202.287 12.853 202.329 12.871C202.37 12.8889 202.407 12.9172 202.434 12.953C202.491 13.0417 202.536 13.137 202.57 13.2369L206.793 24.4747L206.999 25.5445L207.205 24.461L211.456 13.2355C211.488 13.1355 211.534 13.0401 211.59 12.9516C211.618 12.9156 211.655 12.8874 211.696 12.8694C211.738 12.8515 211.784 12.8445 211.829 12.849H213.617C213.669 12.8458 213.72 12.8545 213.768 12.8746C213.816 12.8946 213.858 12.9254 213.892 12.9646C213.96 13.0534 213.999 13.1621 214.001 13.2745V30.7639C214.019 31.0817 213.904 31.2404 213.655 31.2399H212.147C211.892 31.2399 211.765 31.0853 211.765 30.7762L211.879 18.4968L212.023 16.873L211.587 18.4968L207.984 27.9946C207.959 28.1071 207.906 28.2115 207.83 28.2979C207.763 28.3567 207.675 28.3867 207.586 28.3817H206.427C206.342 28.3854 206.259 28.3553 206.196 28.2979C206.12 28.2115 206.067 28.1071 206.042 27.9946L202.455 18.4946Z" fill="#0F1826"/>
<path d="M139.664 13.931L137.845 14.2474C134.14 14.8925 130.692 15.8768 127.554 17.0354V7.05325L126.586 7.49096C124.386 8.48357 122.299 9.52078 120.31 10.614L120.243 0.155794L119.19 0.832056C114.067 4.11898 109.369 7.85398 105.174 11.9655C101.133 8.1278 96.579 4.4011 91.5786 0.849689L90.4944 0.0800781V10.92C88.3282 9.69711 86.1073 8.58314 83.8399 7.58742L82.8724 7.16216L82.9179 16.4442C79.5994 15.2991 76.2582 14.5513 72.9469 14.2131L71.3176 14.0472L84.3603 30.4227L84.3025 18.4356C86.5441 19.3142 88.6184 20.3171 90.4955 21.3512V31.7285L90.6307 31.9121C94.4655 37.0982 104.554 45.5338 104.982 45.8906L105.418 46.2547L105.857 45.8927C106.285 45.54 116.381 37.1915 120.218 31.8032L120.444 31.4153L120.383 21.7537C122.146 20.8223 124.085 19.9012 126.181 19.0486V30.4735L139.664 13.931ZM127.554 18.5093C130.223 17.499 133.127 16.6133 136.23 15.9629L127.554 26.6068V18.5093ZM74.4658 15.7918C77.4631 16.2253 80.2963 16.9794 82.923 17.9191L82.9643 26.4616L74.4658 15.7918ZM118.875 2.68141L118.888 11.4137C115.819 13.1832 112.984 15.102 110.318 17.22C109.737 16.579 109.141 15.9391 108.527 15.3001C107.759 14.4994 106.966 13.7039 106.155 12.9114C109.982 9.1619 114.211 5.76296 118.875 2.68141ZM95.7706 22.9672C94.4861 22.097 93.1831 21.2859 91.8677 20.5349V13.3253C94.4169 14.8738 96.8826 16.579 99.2491 18.4315C98.0452 19.895 96.8846 21.4072 95.7706 22.9672ZM100.316 19.2799C101.657 20.368 102.965 21.5037 104.237 22.684C103.008 23.9287 101.81 25.2346 100.634 26.6078C99.5454 25.7086 98.294 24.7377 96.896 23.7462C97.9905 22.2121 99.1293 20.7227 100.316 19.2799ZM109.257 18.0799C107.867 19.2312 106.524 20.4385 105.216 21.7132C103.914 20.5028 102.575 19.339 101.202 18.224C102.478 16.7253 103.807 15.2752 105.189 13.8729C106.621 15.267 107.978 16.6693 109.257 18.0799ZM109.05 27.5621C107.209 29.0463 105.937 30.2464 105.279 30.8957C104.646 30.2298 103.427 29.0027 101.686 27.4977C102.845 26.1452 104.029 24.858 105.24 23.6321C106.552 24.8943 107.822 26.2043 109.05 27.5621ZM100.795 28.5557C103.316 30.7401 104.728 32.328 104.749 32.3519L105.249 32.9193L105.765 32.3664C105.786 32.3436 107.261 30.7764 109.969 28.5962C110.831 29.5836 111.67 30.5949 112.486 31.6279L105.463 38.2982L98.3312 31.6756C99.1438 30.598 99.9636 29.5587 100.795 28.5557ZM106.219 22.6623C107.5 21.4166 108.817 20.2362 110.177 19.1109C111.573 20.7009 112.87 22.2982 114.063 23.8976C113.934 23.9826 113.809 24.0667 113.685 24.1496C112.361 25.0396 111.175 25.9036 110.134 26.7064C108.873 25.3092 107.567 23.9609 106.219 22.6623ZM111.24 18.252C113.635 16.355 116.17 14.6208 118.893 13.0121L118.905 20.982C117.566 21.7143 116.333 22.4465 115.216 23.1529C113.998 21.5182 112.672 19.8836 111.24 18.252ZM91.8677 2.75505C96.4149 6.04923 100.542 9.45647 104.206 12.9291C103.49 13.6551 102.788 14.3905 102.102 15.1383C101.434 15.8685 100.778 16.6143 100.134 17.3715C97.4928 15.3022 94.7308 13.4114 91.8677 11.7155V2.75505ZM86.2766 17.7428C85.6169 17.4607 84.955 17.1931 84.2922 16.942L84.255 9.28637C86.3799 10.2572 88.4614 11.3338 90.4924 12.509V19.7747C89.0975 19.0279 87.6901 18.3485 86.2766 17.7428ZM94.9797 24.0947C93.8955 25.666 92.8568 27.2799 91.8687 28.9343V22.1323C92.989 22.7919 94.0298 23.4537 94.9797 24.0947ZM105.421 44.4593C103.465 42.7997 95.4639 35.9189 92.0029 31.4454C93.2894 29.1677 94.6565 26.9791 96.1051 24.8757C97.4608 25.8382 98.6802 26.7852 99.7437 27.6658C98.769 28.843 97.8087 30.068 96.8578 31.3458L96.4871 31.8437L105.473 40.1891L114.34 31.7679L113.956 31.2732C113.02 30.0669 112.051 28.8897 111.053 27.7436C112.054 26.9719 113.19 26.1452 114.45 25.2989C114.589 25.2045 114.733 25.109 114.877 25.0136C116.385 27.1233 117.711 29.2372 118.846 31.3448C115.401 35.9655 107.382 42.8111 105.421 44.4593ZM118.916 28.676C118.045 27.2104 117.083 25.7407 116.03 24.2689C116.917 23.7099 117.878 23.1342 118.907 22.5565L118.916 28.676ZM120.37 20.203L120.318 12.1885C122.18 11.142 124.128 10.1473 126.179 9.1951V17.5623C124.089 18.39 122.147 19.2882 120.37 20.203Z" fill="#BA8D5B"/>
</g>
</svg>
