<svg width="129" height="40" viewBox="0 0 129 40" fill="none" xmlns="http://www.w3.org/2000/svg">
<rect x="0.75" width="127.67" height="40" rx="20" fill="white"/>
<rect x="6.75" y="6" width="28" height="28" rx="14" fill="#BA8D5B"/>
<path d="M24.5441 20.5479L17.7154 25.2759C17.6154 25.3451 17.4983 25.3857 17.3768 25.3931C17.2554 25.4005 17.1342 25.3746 17.0264 25.3181C16.9187 25.2615 16.8284 25.1766 16.7655 25.0725C16.7026 24.9683 16.6694 24.8489 16.6694 24.7272V15.2726C16.6694 15.1509 16.7026 15.0315 16.7655 14.9274C16.8284 14.8232 16.9187 14.7383 17.0264 14.6818C17.1342 14.6252 17.2554 14.5993 17.3768 14.6067C17.4983 14.6141 17.6154 14.6547 17.7154 14.7239L24.5441 19.4519C24.6327 19.5133 24.705 19.5952 24.755 19.6906C24.805 19.786 24.8311 19.8922 24.8311 19.9999C24.8311 20.1077 24.805 20.2138 24.755 20.3092C24.705 20.4047 24.6327 20.4866 24.5441 20.5479Z" fill="white"/>
<path d="M51.15 15.324L47.646 24H46.188L42.684 15.324H43.98C44.12 15.324 44.234 15.358 44.322 15.426C44.41 15.494 44.476 15.582 44.52 15.69L46.566 20.982C46.634 21.154 46.698 21.344 46.758 21.552C46.822 21.756 46.882 21.97 46.938 22.194C46.986 21.97 47.038 21.756 47.094 21.552C47.15 21.344 47.212 21.154 47.28 20.982L49.314 15.69C49.346 15.598 49.408 15.514 49.5 15.438C49.596 15.362 49.712 15.324 49.848 15.324H51.15ZM53.35 17.844V24H51.862V17.844H53.35ZM53.554 16.05C53.554 16.178 53.528 16.298 53.476 16.41C53.424 16.522 53.354 16.62 53.266 16.704C53.182 16.788 53.082 16.856 52.966 16.908C52.85 16.956 52.726 16.98 52.594 16.98C52.466 16.98 52.344 16.956 52.228 16.908C52.116 16.856 52.018 16.788 51.934 16.704C51.85 16.62 51.782 16.522 51.73 16.41C51.682 16.298 51.658 16.178 51.658 16.05C51.658 15.918 51.682 15.794 51.73 15.678C51.782 15.562 51.85 15.462 51.934 15.378C52.018 15.294 52.116 15.228 52.228 15.18C52.344 15.128 52.466 15.102 52.594 15.102C52.726 15.102 52.85 15.128 52.966 15.18C53.082 15.228 53.182 15.294 53.266 15.378C53.354 15.462 53.424 15.562 53.476 15.678C53.528 15.794 53.554 15.918 53.554 16.05ZM58.7249 19.416C58.5569 19.212 58.3729 19.068 58.1729 18.984C57.9769 18.9 57.7649 18.858 57.5369 18.858C57.3129 18.858 57.1109 18.9 56.9309 18.984C56.7509 19.068 56.5969 19.196 56.4689 19.368C56.3409 19.536 56.2429 19.752 56.1749 20.016C56.1069 20.276 56.0729 20.584 56.0729 20.94C56.0729 21.3 56.1009 21.606 56.1569 21.858C56.2169 22.106 56.3009 22.31 56.4089 22.47C56.5169 22.626 56.6489 22.74 56.8049 22.812C56.9609 22.88 57.1349 22.914 57.3269 22.914C57.6349 22.914 57.8969 22.85 58.1129 22.722C58.3289 22.594 58.5329 22.412 58.7249 22.176V19.416ZM60.2069 15.084V24H59.3009C59.1049 24 58.9809 23.91 58.9289 23.73L58.8029 23.136C58.5549 23.42 58.2689 23.65 57.9449 23.826C57.6249 24.002 57.2509 24.09 56.8229 24.09C56.4869 24.09 56.1789 24.02 55.8989 23.88C55.6189 23.74 55.3769 23.538 55.1729 23.274C54.9729 23.006 54.8169 22.676 54.7049 22.284C54.5969 21.892 54.5429 21.444 54.5429 20.94C54.5429 20.484 54.6049 20.06 54.7289 19.668C54.8529 19.276 55.0309 18.936 55.2629 18.648C55.4949 18.36 55.7729 18.136 56.0969 17.976C56.4209 17.812 56.7849 17.73 57.1889 17.73C57.5329 17.73 57.8269 17.784 58.0709 17.892C58.3149 18 58.5329 18.146 58.7249 18.33V15.084H60.2069ZM65.6355 20.214C65.6355 20.022 65.6075 19.842 65.5515 19.674C65.4995 19.502 65.4195 19.352 65.3115 19.224C65.2035 19.096 65.0655 18.996 64.8975 18.924C64.7335 18.848 64.5415 18.81 64.3215 18.81C63.8935 18.81 63.5555 18.932 63.3075 19.176C63.0635 19.42 62.9075 19.766 62.8395 20.214H65.6355ZM62.8095 21.108C62.8335 21.424 62.8895 21.698 62.9775 21.93C63.0655 22.158 63.1815 22.348 63.3255 22.5C63.4695 22.648 63.6395 22.76 63.8355 22.836C64.0355 22.908 64.2555 22.944 64.4955 22.944C64.7355 22.944 64.9415 22.916 65.1135 22.86C65.2895 22.804 65.4415 22.742 65.5695 22.674C65.7015 22.606 65.8155 22.544 65.9115 22.488C66.0115 22.432 66.1075 22.404 66.1995 22.404C66.3235 22.404 66.4155 22.45 66.4755 22.542L66.9015 23.082C66.7375 23.274 66.5535 23.436 66.3495 23.568C66.1455 23.696 65.9315 23.8 65.7075 23.88C65.4875 23.956 65.2615 24.01 65.0295 24.042C64.8015 24.074 64.5795 24.09 64.3635 24.09C63.9355 24.09 63.5375 24.02 63.1695 23.88C62.8015 23.736 62.4815 23.526 62.2095 23.25C61.9375 22.97 61.7235 22.626 61.5675 22.218C61.4115 21.806 61.3335 21.33 61.3335 20.79C61.3335 20.37 61.4015 19.976 61.5375 19.608C61.6735 19.236 61.8675 18.914 62.1195 18.642C62.3755 18.366 62.6855 18.148 63.0495 17.988C63.4175 17.828 63.8315 17.748 64.2915 17.748C64.6795 17.748 65.0375 17.81 65.3655 17.934C65.6935 18.058 65.9755 18.24 66.2115 18.48C66.4475 18.716 66.6315 19.008 66.7635 19.356C66.8995 19.7 66.9675 20.094 66.9675 20.538C66.9675 20.762 66.9435 20.914 66.8955 20.994C66.8475 21.07 66.7555 21.108 66.6195 21.108H62.8095ZM70.8037 17.748C71.2597 17.748 71.6737 17.822 72.0457 17.97C72.4217 18.118 72.7417 18.328 73.0057 18.6C73.2737 18.872 73.4797 19.204 73.6237 19.596C73.7677 19.988 73.8397 20.426 73.8397 20.91C73.8397 21.398 73.7677 21.838 73.6237 22.23C73.4797 22.622 73.2737 22.956 73.0057 23.232C72.7417 23.508 72.4217 23.72 72.0457 23.868C71.6737 24.016 71.2597 24.09 70.8037 24.09C70.3437 24.09 69.9257 24.016 69.5497 23.868C69.1737 23.72 68.8517 23.508 68.5837 23.232C68.3197 22.956 68.1137 22.622 67.9657 22.23C67.8217 21.838 67.7497 21.398 67.7497 20.91C67.7497 20.426 67.8217 19.988 67.9657 19.596C68.1137 19.204 68.3197 18.872 68.5837 18.6C68.8517 18.328 69.1737 18.118 69.5497 17.97C69.9257 17.822 70.3437 17.748 70.8037 17.748ZM70.8037 22.95C71.3157 22.95 71.6937 22.778 71.9377 22.434C72.1857 22.09 72.3097 21.586 72.3097 20.922C72.3097 20.258 72.1857 19.752 71.9377 19.404C71.6937 19.056 71.3157 18.882 70.8037 18.882C70.2837 18.882 69.8977 19.058 69.6457 19.41C69.3977 19.758 69.2737 20.262 69.2737 20.922C69.2737 21.582 69.3977 22.086 69.6457 22.434C69.8977 22.778 70.2837 22.95 70.8037 22.95ZM76.3563 18.6C76.4803 18.476 76.6103 18.362 76.7463 18.258C76.8863 18.15 77.0323 18.06 77.1843 17.988C77.3403 17.912 77.5063 17.854 77.6823 17.814C77.8583 17.77 78.0503 17.748 78.2583 17.748C78.5943 17.748 78.8923 17.806 79.1523 17.922C79.4123 18.034 79.6283 18.194 79.8003 18.402C79.9763 18.606 80.1083 18.852 80.1963 19.14C80.2883 19.424 80.3343 19.738 80.3343 20.082V24H78.8523V20.082C78.8523 19.706 78.7663 19.416 78.5943 19.212C78.4223 19.004 78.1603 18.9 77.8083 18.9C77.5523 18.9 77.3123 18.958 77.0883 19.074C76.8643 19.19 76.6523 19.348 76.4523 19.548V24H74.9703V17.844H75.8763C76.0683 17.844 76.1943 17.934 76.2543 18.114L76.3563 18.6ZM83.2797 17.844V24H81.7917V17.844H83.2797ZM83.4837 16.05C83.4837 16.178 83.4577 16.298 83.4057 16.41C83.3537 16.522 83.2837 16.62 83.1957 16.704C83.1117 16.788 83.0117 16.856 82.8957 16.908C82.7797 16.956 82.6557 16.98 82.5237 16.98C82.3957 16.98 82.2737 16.956 82.1577 16.908C82.0457 16.856 81.9477 16.788 81.8637 16.704C81.7797 16.62 81.7117 16.522 81.6597 16.41C81.6117 16.298 81.5877 16.178 81.5877 16.05C81.5877 15.918 81.6117 15.794 81.6597 15.678C81.7117 15.562 81.7797 15.462 81.8637 15.378C81.9477 15.294 82.0457 15.228 82.1577 15.18C82.2737 15.128 82.3957 15.102 82.5237 15.102C82.6557 15.102 82.7797 15.128 82.8957 15.18C83.0117 15.228 83.1117 15.294 83.1957 15.378C83.2837 15.462 83.3537 15.562 83.4057 15.678C83.4577 15.794 83.4837 15.918 83.4837 16.05ZM89.1906 15.084V20.19H89.4666C89.5666 20.19 89.6446 20.178 89.7006 20.154C89.7606 20.126 89.8206 20.072 89.8806 19.992L91.4106 18.102C91.4746 18.018 91.5446 17.954 91.6206 17.91C91.7006 17.866 91.8026 17.844 91.9266 17.844H93.2826L91.3686 20.13C91.2326 20.31 91.0846 20.448 90.9246 20.544C91.0086 20.604 91.0826 20.674 91.1466 20.754C91.2146 20.834 91.2786 20.92 91.3386 21.012L93.3906 24H92.0526C91.9366 24 91.8366 23.982 91.7526 23.946C91.6686 23.906 91.5986 23.836 91.5426 23.736L89.9706 21.402C89.9146 21.31 89.8566 21.25 89.7966 21.222C89.7366 21.194 89.6466 21.18 89.5266 21.18H89.1906V24H87.7086V15.084H89.1906ZM96.5263 17.748C96.9823 17.748 97.3963 17.822 97.7683 17.97C98.1443 18.118 98.4643 18.328 98.7283 18.6C98.9963 18.872 99.2023 19.204 99.3463 19.596C99.4903 19.988 99.5623 20.426 99.5623 20.91C99.5623 21.398 99.4903 21.838 99.3463 22.23C99.2023 22.622 98.9963 22.956 98.7283 23.232C98.4643 23.508 98.1443 23.72 97.7683 23.868C97.3963 24.016 96.9823 24.09 96.5263 24.09C96.0663 24.09 95.6483 24.016 95.2723 23.868C94.8963 23.72 94.5743 23.508 94.3063 23.232C94.0423 22.956 93.8363 22.622 93.6883 22.23C93.5443 21.838 93.4723 21.398 93.4723 20.91C93.4723 20.426 93.5443 19.988 93.6883 19.596C93.8363 19.204 94.0423 18.872 94.3063 18.6C94.5743 18.328 94.8963 18.118 95.2723 17.97C95.6483 17.822 96.0663 17.748 96.5263 17.748ZM96.5263 22.95C97.0383 22.95 97.4163 22.778 97.6603 22.434C97.9083 22.09 98.0323 21.586 98.0323 20.922C98.0323 20.258 97.9083 19.752 97.6603 19.404C97.4163 19.056 97.0383 18.882 96.5263 18.882C96.0063 18.882 95.6203 19.058 95.3683 19.41C95.1203 19.758 94.9963 20.262 94.9963 20.922C94.9963 21.582 95.1203 22.086 95.3683 22.434C95.6203 22.778 96.0063 22.95 96.5263 22.95ZM100.604 18.426C100.412 18.11 100.282 17.78 100.214 17.436C100.146 17.092 100.14 16.754 100.196 16.422C100.252 16.09 100.368 15.772 100.544 15.468C100.724 15.16 100.964 14.884 101.264 14.64L101.726 14.922C101.806 14.974 101.842 15.038 101.834 15.114C101.826 15.19 101.8 15.25 101.756 15.294C101.672 15.394 101.592 15.526 101.516 15.69C101.44 15.854 101.386 16.038 101.354 16.242C101.326 16.446 101.33 16.664 101.366 16.896C101.402 17.128 101.492 17.36 101.636 17.592C101.708 17.708 101.728 17.81 101.696 17.898C101.664 17.982 101.598 18.042 101.498 18.078L100.604 18.426ZM104.435 18.912C104.627 18.544 104.855 18.256 105.119 18.048C105.383 17.836 105.695 17.73 106.055 17.73C106.339 17.73 106.567 17.792 106.739 17.916L106.643 19.026C106.623 19.098 106.593 19.15 106.553 19.182C106.517 19.21 106.467 19.224 106.403 19.224C106.343 19.224 106.253 19.214 106.133 19.194C106.017 19.174 105.903 19.164 105.791 19.164C105.627 19.164 105.481 19.188 105.353 19.236C105.225 19.284 105.109 19.354 105.005 19.446C104.905 19.534 104.815 19.642 104.735 19.77C104.659 19.898 104.587 20.044 104.519 20.208V24H103.037V17.844H103.907C104.059 17.844 104.165 17.872 104.225 17.928C104.285 17.98 104.325 18.076 104.345 18.216L104.435 18.912ZM109.049 17.844V24H107.561V17.844H109.049ZM109.253 16.05C109.253 16.178 109.227 16.298 109.175 16.41C109.123 16.522 109.053 16.62 108.965 16.704C108.881 16.788 108.781 16.856 108.665 16.908C108.549 16.956 108.425 16.98 108.293 16.98C108.165 16.98 108.043 16.956 107.927 16.908C107.815 16.856 107.717 16.788 107.633 16.704C107.549 16.62 107.481 16.522 107.429 16.41C107.381 16.298 107.357 16.178 107.357 16.05C107.357 15.918 107.381 15.794 107.429 15.678C107.481 15.562 107.549 15.462 107.633 15.378C107.717 15.294 107.815 15.228 107.927 15.18C108.043 15.128 108.165 15.102 108.293 15.102C108.425 15.102 108.549 15.128 108.665 15.18C108.781 15.228 108.881 15.294 108.965 15.378C109.053 15.462 109.123 15.562 109.175 15.678C109.227 15.794 109.253 15.918 109.253 16.05ZM114.316 19.044C114.276 19.108 114.234 19.154 114.19 19.182C114.146 19.206 114.09 19.218 114.022 19.218C113.95 19.218 113.872 19.198 113.788 19.158C113.708 19.118 113.614 19.074 113.506 19.026C113.398 18.974 113.274 18.928 113.134 18.888C112.998 18.848 112.836 18.828 112.648 18.828C112.356 18.828 112.126 18.89 111.958 19.014C111.794 19.138 111.712 19.3 111.712 19.5C111.712 19.632 111.754 19.744 111.838 19.836C111.926 19.924 112.04 20.002 112.18 20.07C112.324 20.138 112.486 20.2 112.666 20.256C112.846 20.308 113.028 20.366 113.212 20.43C113.4 20.494 113.584 20.568 113.764 20.652C113.944 20.732 114.104 20.836 114.244 20.964C114.388 21.088 114.502 21.238 114.586 21.414C114.674 21.59 114.718 21.802 114.718 22.05C114.718 22.346 114.664 22.62 114.556 22.872C114.452 23.12 114.296 23.336 114.088 23.52C113.88 23.7 113.622 23.842 113.314 23.946C113.01 24.046 112.658 24.096 112.258 24.096C112.046 24.096 111.838 24.076 111.634 24.036C111.434 24 111.24 23.948 111.052 23.88C110.868 23.812 110.696 23.732 110.536 23.64C110.38 23.548 110.242 23.448 110.122 23.34L110.464 22.776C110.508 22.708 110.56 22.656 110.62 22.62C110.68 22.584 110.756 22.566 110.848 22.566C110.94 22.566 111.026 22.592 111.106 22.644C111.19 22.696 111.286 22.752 111.394 22.812C111.502 22.872 111.628 22.928 111.772 22.98C111.92 23.032 112.106 23.058 112.33 23.058C112.506 23.058 112.656 23.038 112.78 22.998C112.908 22.954 113.012 22.898 113.092 22.83C113.176 22.762 113.236 22.684 113.272 22.596C113.312 22.504 113.332 22.41 113.332 22.314C113.332 22.17 113.288 22.052 113.2 21.96C113.116 21.868 113.002 21.788 112.858 21.72C112.718 21.652 112.556 21.592 112.372 21.54C112.192 21.484 112.006 21.424 111.814 21.36C111.626 21.296 111.44 21.222 111.256 21.138C111.076 21.05 110.914 20.94 110.77 20.808C110.63 20.676 110.516 20.514 110.428 20.322C110.344 20.13 110.302 19.898 110.302 19.626C110.302 19.374 110.352 19.134 110.452 18.906C110.552 18.678 110.698 18.48 110.89 18.312C111.086 18.14 111.328 18.004 111.616 17.904C111.908 17.8 112.244 17.748 112.624 17.748C113.048 17.748 113.434 17.818 113.782 17.958C114.13 18.098 114.42 18.282 114.652 18.51L114.316 19.044ZM117.316 18.504C117.556 18.28 117.82 18.098 118.108 17.958C118.396 17.818 118.734 17.748 119.122 17.748C119.458 17.748 119.756 17.806 120.016 17.922C120.276 18.034 120.492 18.194 120.664 18.402C120.84 18.606 120.972 18.852 121.06 19.14C121.152 19.424 121.198 19.738 121.198 20.082V24H119.716V20.082C119.716 19.706 119.63 19.416 119.458 19.212C119.286 19.004 119.024 18.9 118.672 18.9C118.416 18.9 118.176 18.958 117.952 19.074C117.728 19.19 117.516 19.348 117.316 19.548V24H115.834V15.084H117.316V18.504Z" fill="black"/>
</svg>
